<?xml version="1.0" standalone="no"?>
<!DOCTYPE svg PUBLIC "-//W3C//DTD SVG 20010904//EN"
 "http://www.w3.org/TR/2001/REC-SVG-20010904/DTD/svg10.dtd">
<svg version="1.0" xmlns="http://www.w3.org/2000/svg"
 width="1333.000000pt" height="1586.000000pt" viewBox="0 0 1333.000000 1586.000000"
 preserveAspectRatio="xMidYMid meet">

<g transform="translate(0.000000,1586.000000) scale(0.100000,-0.100000)"
fill="#000000" stroke="none">
<path d="M8316 15753 c-24 -159 -44 -346 -57 -538 -13 -194 -6 -897 11 -1060
33 -311 107 -533 237 -702 133 -175 336 -274 501 -245 31 6 58 9 60 7 1 -1
-232 -228 -518 -505 -287 -276 -520 -506 -518 -509 2 -4 17 -40 33 -79 17 -40
33 -71 37 -69 4 1 548 524 1209 1162 661 638 1237 1194 1281 1235 l79 75 -28
89 -28 89 -595 -575 c-327 -316 -596 -574 -598 -572 -2 1 8 34 22 73 14 39 35
115 47 169 39 183 38 792 -2 792 -4 0 -13 -19 -19 -42 -43 -167 -77 -249 -144
-341 -111 -156 -288 -227 -466 -186 -122 28 -287 144 -342 242 -83 144 -140
403 -169 757 -6 80 -11 301 -11 493 1 191 -1 347 -2 347 -2 0 -11 -48 -20
-107z"/>
<path d="M6786 15088 c-4 -84 -13 -395 -21 -690 l-16 -538 125 -382 c436
-1333 735 -2430 1191 -4363 97 -412 189 -801 204 -863 l27 -113 -58 -262 c-32
-144 -99 -455 -149 -692 -119 -567 -168 -774 -246 -1045 -35 -124 -82 -289
-104 -366 -323 -1164 -1072 -2146 -2227 -2921 -962 -645 -2243 -1158 -3666
-1468 -286 -62 -291 -62 -96 3 472 157 913 373 1247 610 573 406 986 945 1199
1567 88 254 146 515 180 810 24 205 25 723 1 945 -9 85 -23 225 -32 310 -48
478 -207 1180 -471 2070 -36 124 -88 299 -114 390 -132 452 -320 824 -587
1158 -106 132 -378 403 -488 486 -106 79 -263 159 -355 181 -84 19 -200 19
-275 0 -198 -51 -326 -198 -387 -440 -28 -115 -30 -345 -6 -625 10 -107 24
-283 33 -390 41 -505 130 -1016 230 -1315 101 -300 296 -481 540 -502 341 -28
643 264 776 752 16 58 24 122 28 229 l6 149 56 -64 c121 -139 230 -291 322
-451 52 -90 58 -109 86 -245 36 -178 66 -400 82 -621 17 -235 6 -757 -20 -973
-140 -1151 -580 -2078 -1361 -2860 -446 -447 -933 -789 -1580 -1108 -287 -142
-761 -341 -841 -353 -32 -5 68 -36 336 -103 1054 -266 2175 -342 3114 -210
788 111 1475 371 2036 770 967 688 1657 1604 2127 2825 201 523 349 1054 563
2022 164 741 237 1060 251 1098 3 8 39 -101 80 -244 366 -1284 743 -1905 1376
-2275 255 -148 616 -266 928 -302 129 -14 423 -7 538 15 424 79 781 286 1070
621 547 635 745 1597 517 2520 -181 733 -577 1352 -1150 1798 -122 95 -308
216 -419 273 -50 26 -92 48 -93 49 -2 1 6 98 17 216 79 873 55 1650 -66 2129
-64 252 -197 407 -399 466 -92 26 -255 22 -377 -10 -437 -115 -917 -537 -1120
-985 -202 -446 -477 -1315 -738 -2331 -50 -195 -94 -363 -98 -373 -5 -12 -113
369 -306 1070 -302 1101 -1362 4947 -1391 5048 -9 30 -18 55 -20 55 -1 0 -6
-69 -9 -152z m3776 -3749 c156 -52 288 -190 458 -479 83 -141 163 -441 209
-786 18 -137 18 -141 0 -214 -119 -472 -80 -1165 105 -1892 56 -218 196 -662
203 -642 2 6 -5 75 -17 152 -41 281 -53 472 -54 839 -1 193 2 355 6 358 9 9
178 -102 286 -187 104 -83 249 -224 340 -333 273 -326 456 -770 479 -1161 l6
-112 -56 -106 c-233 -439 -589 -762 -1037 -939 -421 -167 -880 -180 -1297 -36
-258 89 -464 218 -658 413 -151 152 -238 270 -330 448 -88 170 -132 292 -205
564 -34 126 -118 435 -186 688 -93 341 -123 467 -119 490 14 64 256 779 330
971 217 567 454 1056 671 1382 312 470 609 669 866 582z"/>
<path d="M9860 9183 c0 -5 -4 -35 -10 -68 -49 -308 -70 -605 -70 -988 0 -511
20 -759 76 -964 74 -277 219 -480 407 -573 146 -72 275 -76 410 -12 201 95
336 353 367 702 22 252 8 648 -23 637 -5 -1 -19 -41 -32 -87 -84 -318 -257
-490 -494 -490 -183 0 -386 129 -466 295 -115 240 -176 757 -159 1333 4 122 4
222 1 222 -4 0 -7 -3 -7 -7z"/>
<path d="M5803 14134 c-60 -22 -127 -85 -152 -143 -37 -87 -54 -384 -31 -544
28 -195 185 -310 444 -326 l108 -6 -97 -120 c-432 -530 -2105 -2698 -2105
-2726 0 -16 153 85 322 214 680 515 1374 1391 1922 2425 59 111 110 202 113
202 18 0 93 -53 109 -77 10 -15 23 -61 29 -102 5 -41 14 -74 20 -73 20 2 28
82 29 282 1 177 -2 213 -19 265 -22 70 -85 139 -137 153 -32 8 -33 10 -45 82
-17 103 -49 204 -86 275 -40 75 -137 174 -201 205 -61 29 -164 36 -223 14z
m181 -464 c30 -12 74 -39 98 -61 l43 -40 -55 6 c-88 10 -173 32 -236 61 l-59
26 30 14 c44 19 117 17 179 -6z"/>
<path d="M5535 11394 c-108 -26 -202 -81 -291 -169 -83 -81 -175 -211 -219
-307 -42 -91 -100 -365 -125 -583 -15 -133 -12 -427 5 -557 36 -272 122 -515
249 -706 48 -72 113 -152 124 -152 4 0 8 51 8 113 2 133 29 272 84 438 123
370 337 624 589 700 245 73 578 -80 952 -438 178 -170 241 -249 272 -339 47
-137 59 -217 60 -379 0 -160 -13 -261 -59 -440 -162 -634 -696 -1470 -1524
-2389 -313 -347 -732 -770 -1032 -1042 -48 -43 -82 -80 -74 -82 19 -4 329 92
514 159 901 330 1681 802 2198 1330 332 340 512 710 565 1163 15 129 6 518
-15 648 -39 238 -104 496 -186 733 -162 468 -473 1160 -627 1395 -86 131 -187
252 -337 402 -281 281 -550 451 -798 503 -87 19 -254 18 -333 -1z"/>
<path d="M5645 8751 c-68 -41 -117 -123 -170 -285 -52 -159 -105 -451 -105
-579 l0 -48 -59 88 c-147 219 -401 453 -546 504 -65 23 -85 24 -130 5 -51 -22
-82 -93 -116 -265 -16 -80 -29 -167 -29 -195 l0 -50 29 31 c39 42 72 50 136
29 83 -26 189 -107 346 -265 152 -154 212 -234 339 -456 35 -60 99 -171 143
-245 82 -138 187 -344 187 -368 0 -8 6 -12 13 -10 33 11 97 309 97 455 0 134
-22 215 -124 453 -113 263 -153 391 -175 553 -9 67 -9 83 5 110 53 104 160
135 253 74 109 -72 168 -252 178 -544 3 -90 9 -163 13 -163 7 0 25 57 67 210
26 94 26 475 0 605 -53 264 -132 375 -268 375 -35 0 -65 -7 -84 -19z"/>
<path d="M5272 5030 c-1 -3 -12 -72 -23 -155 -42 -306 -36 -859 11 -1055 43
-175 142 -320 258 -377 73 -35 174 -38 242 -7 90 42 166 148 205 289 29 101
33 535 6 535 -4 0 -13 -24 -20 -53 -53 -238 -234 -358 -412 -275 -115 53 -171
127 -208 274 -36 145 -44 227 -51 529 -3 165 -7 298 -8 295z"/>
<path d="M9312 4763 c-69 -34 -135 -141 -186 -302 -37 -118 -84 -355 -95 -484
-5 -60 -11 -111 -13 -113 -3 -2 -30 33 -61 79 -97 142 -269 321 -402 418 -74
54 -131 80 -189 86 -111 11 -148 -43 -196 -286 -29 -148 -37 -221 -24 -221 3
0 19 14 34 30 78 84 252 -9 499 -266 136 -141 193 -222 362 -514 217 -375 238
-413 265 -481 15 -38 30 -69 34 -69 10 0 46 118 71 235 15 69 22 137 23 220 0
144 -16 212 -100 402 -116 266 -163 404 -189 552 -22 122 -20 151 14 198 79
109 218 96 304 -29 72 -105 107 -267 107 -500 0 -77 4 -138 9 -138 12 0 45
100 71 215 62 271 14 726 -94 882 -59 86 -167 124 -244 86z"/>
<path d="M11673 4096 c-123 -205 -225 -380 -229 -389 -4 -11 109 -105 406
-337 227 -177 416 -318 420 -313 5 4 96 194 204 422 l195 414 -385 289 c-211
158 -385 288 -386 288 -2 0 -103 -169 -225 -374z"/>
<path d="M8115 3418 c-7 -20 -33 -207 -52 -378 -25 -215 -24 -935 1 -1145 26
-223 82 -404 164 -529 63 -94 157 -182 241 -224 73 -36 78 -37 186 -37 104 0
114 2 177 33 113 56 197 164 256 332 51 146 62 243 61 529 -1 253 -5 302 -24
302 -5 0 -19 -38 -32 -85 -107 -405 -452 -539 -736 -285 -86 77 -134 177 -175
369 -45 210 -56 353 -57 752 0 208 -1 378 -3 378 -1 0 -5 -6 -7 -12z"/>
</g>
</svg>
